<svg width="138" height="114" viewBox="0 0 138 114" fill="none" xmlns="http://www.w3.org/2000/svg">
<path d="M86.408 112.406H93.7767C118.206 112.406 138 92.6011 138 68.1832V44.403C138 19.9737 118.195 0.179688 93.7767 0.179688H44.2233C19.794 0.179688 0 19.9851 0 44.403V113.101H51.0453C57.6053 113.101 62.924 107.783 62.924 101.223V97.3275C62.924 91.0522 57.8331 85.9613 51.5578 85.9613H48.9156C37.1394 85.9613 27.5954 76.4174 27.5954 64.6412V49.4255C27.5954 37.2166 37.4924 27.331 49.69 27.331H88.2872C100.496 27.331 110.382 37.228 110.382 49.4255V63.172C110.382 75.381 100.485 85.2666 88.2872 85.2666H85.8841C79.6088 85.2666 74.5179 90.3574 74.5179 96.6328V100.528C74.5179 107.088 79.8366 112.406 86.3966 112.406H86.408Z" fill="url(#paint0_linear_3055_19)"/>
<path d="M52.4607 62.0222C55.9327 62.0222 58.7474 59.2076 58.7474 55.7355C58.7474 52.2635 55.9327 49.4488 52.4607 49.4488C48.9886 49.4488 46.174 52.2635 46.174 55.7355C46.174 59.2076 48.9886 62.0222 52.4607 62.0222Z" fill="url(#paint1_linear_3055_19)"/>
<path d="M84.4334 62.0222C87.9055 62.0222 90.7201 59.2076 90.7201 55.7355C90.7201 52.2635 87.9055 49.4488 84.4334 49.4488C80.9614 49.4488 78.1467 52.2635 78.1467 55.7355C78.1467 59.2076 80.9614 62.0222 84.4334 62.0222Z" fill="url(#paint2_linear_3055_19)"/>
<defs>
<linearGradient id="paint0_linear_3055_19" x1="-34.4288" y1="149.421" x2="135.278" y2="-3.39644" gradientUnits="userSpaceOnUse">
<stop offset="0.13" stop-color="#0099EA"/>
<stop offset="1" stop-color="#D8F5A5"/>
</linearGradient>
<linearGradient id="paint1_linear_3055_19" x1="37.1994" y1="104.013" x2="67.1296" y2="9.30275" gradientUnits="userSpaceOnUse">
<stop offset="0.13" stop-color="#0099EA"/>
<stop offset="1" stop-color="#D8F5A5"/>
</linearGradient>
<linearGradient id="paint2_linear_3055_19" x1="66.2681" y1="113.204" x2="96.1983" y2="18.4937" gradientUnits="userSpaceOnUse">
<stop offset="0.13" stop-color="#0099EA"/>
<stop offset="1" stop-color="#D8F5A5"/>
</linearGradient>
</defs>
</svg>
